<svg viewBox="0 0 135.6975 130.907" width="87.0739532645313" height="84" xmlns="http://www.w3.org/2000/svg" xmlns:xlink="http://www.w3.org/1999/xlink" preserveAspectRatio="none"><defs></defs><style>.aLgOaV3zRcolors-03qSTnitp7 {fill:#FFFFFF;fill-opacity:1;}</style><g opacity="1" transform="rotate(0 0 0)">
        <svg width="135.6975" height="130.907" x="0" y="0" version="1.1" preserveAspectRatio="none" viewBox="0.7567616701126099 2.5 98.47648620605469 95">
          <g transform="matrix(-1 0 0 1 99.99000954627991 0)" class="aLgOaV3zRcolors-03qSTnitp7"><title>Artboard 16</title><path d="M23.35,64.45V87.38h53.3V64.45a24.24,24.24,0,0,0,6.36.86c.55,0,1.1,0,1.66-.06s1.41-.14,2.1-.25V87.38h4.07a5.07,5.07,0,0,1,0,10.12H9.16a5.07,5.07,0,0,1,0-10.12h4.07V65c.7.11,1.41.2,2.13.25q.81.05,1.63.05A24.25,24.25,0,0,0,23.35,64.45ZM97.77,34.64a16.74,16.74,0,0,1-.93,15.47,15.88,15.88,0,0,1-12.67,7.82c-.39,0-.78,0-1.17,0a17.12,17.12,0,0,1-11-4.06A17.07,17.07,0,0,1,50,54a17.07,17.07,0,0,1-22-.11A17.12,17.12,0,0,1,17,58c-.39,0-.77,0-1.16,0A15.88,15.88,0,0,1,3.15,50.11a16.74,16.74,0,0,1-.93-15.47L13.71,9.1A11.21,11.21,0,0,1,23.92,2.5H76.08A11.21,11.21,0,0,1,86.29,9.1Zm-8.93,4L77.36,13.12h0a1.41,1.41,0,0,0-1.28-.83H23.92a1.41,1.41,0,0,0-1.28.83L11.15,38.66a7,7,0,0,0,.39,6.42,6.21,6.21,0,0,0,4.94,3.09l.5,0A7.34,7.34,0,0,0,23.59,44a4.9,4.9,0,0,1,8.86,0,7.34,7.34,0,0,0,6.6,4.21,7.26,7.26,0,0,0,6.55-4.1,4.89,4.89,0,0,1,8.79,0,7.26,7.26,0,0,0,6.55,4.1A7.34,7.34,0,0,0,67.55,44a4.89,4.89,0,0,1,8.86,0A7.34,7.34,0,0,0,83,48.18l.51,0a6.21,6.21,0,0,0,4.93-3.08A7,7,0,0,0,88.85,38.66Z"></path></g>
        </svg>
      </g></svg>